<?xml version="1.0" encoding="utf-8"?>
<!-- Generator: Adobe Illustrator 19.0.0, SVG Export Plug-In . SVG Version: 6.00 Build 0)  -->
<svg version="1.1" id="Layer_1" xmlns="http://www.w3.org/2000/svg" xmlns:xlink="http://www.w3.org/1999/xlink" x="0px" y="0px"
	 viewBox="0 0 1024 1024" style="enable-background:new 0 0 1024 1024;" xml:space="preserve">
<style type="text/css">
	.st0{fill:#00AEEF;}
	.st1{fill:#01AFEF;}
	.st2{fill:#01AEEF;}
</style>
<g>
	<path class="st0" d="M273.8,346.6c7,0,14-0.1,21,0c2.2,0,3.3-0.4,4.4-2.7c5.4-11.2,10.3-22.6,17.1-33.2
		c13.3-20.9,30.2-38.3,49.8-53.1c11.8-8.9,24.7-16,38.1-22.1c9.2-4.2,18.8-7.5,28.7-10.2c8.7-2.4,17.5-3.6,26.2-6
		c6.3-1.8,13.2-1.2,19.8-1.5c14.3-0.6,28.6-0.1,42.9,1.1c6,0.5,11.8,2.9,17.7,3.9c6.3,1,12.4,2.8,18.4,4.9
		c9.1,3.2,18.2,6.6,26.9,10.9c8.6,4.2,16.7,9,24.6,14.2c17.7,11.7,33.2,25.9,46.4,42.8c8.4,10.7,15,22.4,21.9,34
		c0.6,0.9,0.4,2.3,0.9,3.3c1.2,2.5,2.2,5.4,6,3.1c2.7-1.6,5.9-1.1,8.8-1.1c6.7-0.1,13.3,0.1,20-0.1c10-0.2,19.5,3,29.2,4.4
		c10.3,1.5,19.7,5.3,28.9,9.6c22.8,10.5,42.6,25,58.2,45.2c8.5,11.1,15.3,23,20.9,35.7c1.5,3.4,1,7.9,5.3,9.3
		c4.5,1.5,8.6,3.6,12.9,5.3c12,4.6,22.4,11.5,32.5,19.2c16.9,12.8,30.1,29,40,47.7c4.6,8.8,7.6,18.3,10.7,27.7
		c6.3,19,2.8,38.3,3.2,57.4c0.2,8.9-4,17.4-7.1,25.9c-2.5,7.1-5.8,13.7-9.4,20.2c-4.8,8.7-10.6,16.6-17.1,24.2
		c-11.9,14.1-26.6,24.9-42.4,33.9c-7.5,4.2-15.6,7.6-24,10.3c-11.4,3.7-22.9,6.5-34.6,7.9c-12.9,1.5-25.9,2-38.7-0.7
		c-5.3-1.1-10.6-0.6-15.9-3.1c-6-2.8-10.4,3.1-15.4,5.4c-8,3.7-15.9,7.5-24.1,10.8c-10.1,4.1-20.9,4.8-31,8.2
		c-2.4,0.8-5.3,0.4-7.9,0.4c-10.2,0-20.3,0-30.5,0c-7.3,0-14.1-2.5-21.1-3.6c-8.7-1.3-16.4-4.8-24.6-7.4c-2.3-0.7-5.1-1.6-6.6-2.8
		c-3.9-3.2-6.1-1.2-8.7,1.3c-10.8,10.5-23.2,19-36.6,25.6c-8.4,4.1-17.5,7-26.4,10.2c-23,8.3-46.6,5-69.9,5.3
		c-7.1,0.1-14.3-3.4-21.4-5.1c-10.3-2.5-19.6-7-29.1-11.5c-8.1-3.9-15.4-8.9-22.5-14.3c-7.1-5.3-13.5-11.3-19.3-17.9
		c-3.6-4.1-6.5-0.3-9.1,0.7c-8,3-15.7,6.6-24,8.6c-7.5,1.8-14.9,4.3-22.4,6.5c-0.3,0.1-0.7,0.1-1,0.2c-21.4,2.9-43.1,3.5-64.5,1.8
		c-10.2-0.8-20.6-2.2-30.7-5.8c-5.8-2.1-12.4-3.4-18.6-5.2c-8-2.3-15.6-6.3-23.2-9.9c-13.5-6.5-25.9-14.7-37.7-23.9
		c-5.7-4.4-11.6-9-15.8-14.6c-7.6-10-2.7-22.2,8.5-28.2c11.9-6.4,19.9,0.7,27.5,7.6c13,11.8,27.8,21.1,43.7,27.9
		c10.6,4.5,21.7,8.1,33.4,10.1c13.7,2.3,27.3,4.8,41.2,4.4c9.4-0.3,18.9-1.1,28.2-3c14.2-2.9,28.2-7,41.4-13.2
		c8.9-4.2,17.3-9.5,25.8-14.5c1.2-0.7,2.7-0.7,3.5-1.6c3.6-3.7,5.1-0.6,6.7,1.9c6.2,9.8,12.5,19.5,20.8,27.8
		c11.2,11.3,24,19.8,38.9,25.4c8.7,3.3,17.6,5.4,26.9,6.7c6.2,0.9,12.2,2.6,18.5,2.3c8.2-0.4,16.2-2.5,24.3-4.1
		c5.7-1.1,11.3-2.6,16.8-4.7c15.4-5.8,28.7-14.6,40.2-26.3c6.6-6.6,12-14.2,17.5-21.7c1.9-2.6,3.4-3.3,6.5-1.1
		c11.5,8,23.3,16,36.6,20.7c7.3,2.6,15.1,4.2,22.8,5.8c7.3,1.5,14.4,1.6,21.7,1.6c11.6,0,22.5-3.4,33.7-6.4
		c15.5-4.3,28.5-12.5,40.8-22.4c3.1-2.5,6.6-1.8,9.3-0.6c10.5,4.9,22,5.8,33.1,7.9c7,1.3,14.2,1.1,21.3-0.1
		c6.8-1.2,13.7-1.7,20.3-3.5c6.9-1.8,13.6-4.4,20-7.5c12.1-5.7,23.3-13.1,32.4-22.9c10.2-11,18.1-23.5,23.3-37.9
		c4.9-13.8,7-27.8,5.7-42.1c-1-11.6-4.1-23-9.2-33.7c-10-21.1-25.2-37.3-45.6-48.4c-8.5-4.7-17.2-9.4-27.3-10.6
		c-3.3-0.4-6.6-1.5-9.9-2.3c-3-0.8-5.1-2.9-5.9-6.9c-3-16-8.7-31.1-18.5-44.2c-10.3-13.7-23.1-24.6-38.2-32.7
		c-9.8-5.2-20.3-9.4-31-11.1c-10.6-1.7-21.7-4.6-32.4-2.2c-9.2,2.1-18.9,1.4-27.8,5.7c-3.6,1.7-8.2,3-12.7,3.1c-3,0-4.5-1.2-5.2-4.1
		c-3-12.3-7.4-24.2-13.2-35.5c-14.4-27.9-35.9-49.3-63-64.8c-11-6.3-23-10.7-35.2-14.6c-23.4-7.4-47.3-7.9-71.1-5.8
		c-13.4,1.2-26.5,5.4-39.4,10.2c-21.7,8.1-40.3,20.5-56.8,36.4c-13.1,12.7-23.5,27.7-30.8,44.3c-4.4,10-9,20.2-9.9,31.5
		c-0.2,2.8-1.4,5.8-2.4,8.5c-1.8,5.1-7.1,3.5-9.9,2.3c-6.1-2.5-12.6-2.3-18.8-3.5c-9.3-1.7-18.8-3.8-28.5-3.1
		c-10.5,0.8-20.8,2.7-31.2,4.3c-7.7,1.2-14.9,3.9-22.5,4.7c-1.5,0.2-2.3,0.9-3.3,1.7c-12,9.3-25.4,5.1-32.3-6.8
		c-5.1-8.8,2.8-25.5,12.8-28.3c9.3-2.6,18.4-6.3,27.8-8.4c5.6-1.2,11.2-2.3,16.9-3.3C251.7,346.4,262.8,346.5,273.8,346.6z"/>
	<path class="st0" d="M63.3,534.6c0.9,10.9,3.5,20.7,7.8,30.1c5.1,11.3,13.3,20.4,24,27c11.4,6.9,23.8,10.4,37.2,10.2
		c6.8-0.1,13.7,0.4,20.5-0.6c6.8-1,13.7-2.5,20-5.7c5.2-2.6,8.2-1.3,9.6,4.1c0.8,3.1,1.7,6.3,3,9.3c3.1,7.3,0.8,11.5-6.2,14.6
		c-15.7,7.1-32.5,7.4-49.1,8.5c-8.5,0.6-17.2-1.7-25.8-3.2c-9.4-1.6-17.5-5.3-25.9-9.1c-9.4-4.3-16.7-11.2-23.8-18.3
		c-8.9-8.9-15-19.8-19.2-31.3c-3.7-10.2-5.6-20.8-6.8-32c-0.9-8.7-0.7-17.1,0-25.5c1-11.7,1.9-22.8,5.6-34
		c6.1-18.7,16.7-33.8,31.8-45.9c7.4-5.9,15.9-10,24.8-13.6c14.3-5.8,28.9-6.9,42.5-6.6c4.8,0,8.3,0.1,11.8,0
		c10.7-0.2,21.1,2.4,31.5,4.4c2.3,0.5,4,2.7,6.7,3c1.5,0.2,1.5,2.3,1,3.4c-3.1,7-3.7,14.8-6.5,22c-1.3,3.2-1.7,2.7-4.7,1.7
		c-5-1.7-10.4-2.7-15.7-3.9c-11.1-2.4-22.3-2.3-33.2-1.4c-22.8,1.9-40.9,12.1-51.7,33.3c-5.7,11.3-8.2,22.9-9.1,35.8"/>
	<path class="st0" d="M241.8,487.2c-0.5,2.1-0.4,3.1-1.6,4.3c-21.4,21.2-42.8,42.5-64.1,63.8c-6.6,6.6-13.4,13.1-19.7,20
		c-2.9,3.2-4.9,2.4-7.4-0.2c-8.3-8.4-16.6-16.9-25.2-25.1c-3-2.9-2.7-4.7,0.1-7.4c19-18.8,37.9-37.7,56.9-56.6
		c8.9-8.8,17.9-17.4,26.6-26.4c3.1-3.2,5.2-2.6,7.8,0.1c7.9,8,15.9,15.8,23.8,23.8C240.2,484.8,242.2,485.8,241.8,487.2z"/>
	<path class="st0" d="M621.9,566.4c-3.3-12.5-11.8-19.2-22.9-21.4c-11.2-2.2-23-1.5-32.3,9.2c0-10.1,0-19,0-28
		c0-1.8,0.4-3.9-1.3-5.1c-4.1-2.9-8.7-1.7-13-1c-3.5,0.6-2.9,4.3-2.9,7.1c0,30,0.2,59.9-0.2,89.9c-0.1,4.5,1.8,6.8,5.1,8.4
		c2.6,1.3,5.6,2.7,8.4,2.6c12.3-0.2,24.8,2.6,36.9-1.8c13.2-4.8,21.5-14.3,23.8-27.9C625.2,587.8,624.8,577.2,621.9,566.4z
		 M606.1,595.1c-0.6,6.8-6.7,15.5-15,18c-8.1,2.5-15.2,0.5-22.8-0.5c-2.5-0.3-1.8-1.9-1.8-3.2c0-5.5,0-11,0-16.5h0.1c0-4-0.1-8,0-12
		c0.5-16.9,13.9-24.2,28.6-20.7c4.5,1.1,10.8,10.4,10.9,15.9C606.4,582.4,606.7,588.8,606.1,595.1z"/>
	<path class="st0" d="M867.6,568.8c-1.4-12.3-11.8-23.7-23.7-24.1c-7.9-0.3-15.8-1.1-24,1.5c-15.1,4.8-22.8,16.9-24.4,30.5
		c-0.8,6.9-0.3,14-0.1,21c0.2,5.8,2.2,11.4,5.3,16.1c8.1,12.3,19.8,14.1,33.5,16.9c3.5,0.7,8.5-0.5,11.4-1.5
		c6.5-2.1,11.3-3.8,16.8-6.3c1.7-0.8,4.1-2.6,2.7-5.1c-1.8-3.2-2.7-7.1-6.2-9.2c-0.4-0.2-1.3,0.1-1.8,0.5
		c-7.1,5.1-15.1,6.2-23.7,5.9c-11.6-0.4-21.2-8.7-21.1-21.1c0.1-3,0.5-4.1,3.8-4c7.5,0.3,15,0.1,22.5,0.1v0.2c7.8,0,15.7,0.1,23.5,0
		c2.8,0,5.2-0.4,5.6-4.4C868.5,579.9,868.2,574.4,867.6,568.8z M845.7,577.9c-2.6-0.2-5.3,0-7.9,0c0,0.1,0,0.2,0,0.3
		c-7.1,0-14.2-0.2-21.3,0.1c-3.6,0.2-4.1-1.8-3.4-4.2c2-6.5,5.8-13.8,15.1-14.1c6.2-0.2,12.5-1.7,18.2,2.4c3.1,2.2,4.7,5.6,5.6,8.7
		C853.7,576.9,852,578.3,845.7,577.9z"/>
	<path class="st0" d="M262.8,559.5c-5.8-8.4-14.1-13.5-23.8-14.7c-7.5-0.9-15.2-1-23,1.4c-12.9,3.9-24.1,18.4-24.6,30.9
		c-0.3,6.2-0.3,12.3,0,18.4c0.4,9.6,4.3,17.3,11,23.9c5.6,5.5,12.4,7.9,20.1,9.8c8.7,2.1,16.8,0.7,24-2.1
		c17.6-6.8,22.9-22.3,24.1-39C269.9,579,268.1,567.2,262.8,559.5z M250.8,599.5c-1.5,7.3-8,14.4-15.5,15.2
		c-15.4,1.8-26-5.7-26.3-24.8c0-1.3,0-2.7,0-4c0-7.1,0-14.2,5-20.1c3.1-3.7,6.7-6.4,11.9-6.4c6.3,0,12.8-1.3,18,4.1
		c3.4,3.6,5.7,7.4,7,12.4C252.8,584,252.4,591.6,250.8,599.5z"/>
	<path class="st0" d="M701.1,616.2c-3,2.9-5.5,5.6-8.4,7.9c-6.6,5.2-14.2,6.3-21.7,6c-8.8-0.4-17.3-2.8-22.6-11.3
		c-4-6.4-4.1-13.5-4.1-20.5c-0.1-15.7,0.1-31.3,0-47c0-3.7,1.2-4.9,4.9-4.8c13.5,0.4,11.1-1.7,11.3,10.9c0.1,12.8,0.2,25.7,0,38.5
		c-0.1,4.6,1,8.9,3.1,12.7c3.4,6.2,14.1,8.7,20.6,5.4c9.2-4.5,14.3-11.1,13.7-22.1c-0.7-13.3,0-26.7-0.2-40c0-3.9,1.2-5.5,5.2-5.4
		c14.4,0.4,12.3-2.1,12.4,11.9c0.1,17.7,0,35.3,0.1,53c0,3.8-0.1,7.5,1.5,11.3c1.3,3.1,0.2,5.4-3.8,5.8c-7.2,0.6-8.4-0.3-11.2-9.4
		C701.5,618.2,701.4,617.4,701.1,616.2z"/>
	<path class="st0" d="M289.5,587.4c0-12,0.1-24-0.1-36c-0.1-3.6,1-5.5,4.8-4.8c3.2,0.6,8.4-2.4,8.3,4.5c0,1.4-0.5,3.2,1.1,4.1
		c1.9,1.1,2.7-1,3.6-1.9c9.9-9.7,22.3-10.1,34.6-8.4c8.4,1.1,15.3,7.9,17.9,17.6c3.9,14.2,1.3,28.4,2.1,42.6
		c0.3,6.1-0.1,12.3,0.1,18.5c0.1,3.7-1.4,4.9-5,5c-12.4,0.3-12.4,0.4-12.4-12c0-13.8,0.1-27.7-0.2-41.5c-0.1-5-1.7-9.8-6.2-12.6
		c-7.8-4.8-15.7-3.5-23.2,0.7c-6.2,3.5-9,9.4-9.1,16.3c-0.2,13.8,0,27.7-0.1,41.5c0,7.4-0.2,7.5-7.6,7.5c-9.8,0-8.7,0.4-8.7-8.5
		C289.4,609,289.5,598.2,289.5,587.4z"/>
	<path class="st0" d="M743.2,546.5c-0.1-2.8-0.3-5.1-0.4-7.4c0-7.6,1.9-9.8,9.6-10.6c8.1-0.9,8.1-0.9,8.1,7.6
		c0,10.4,0,10.4,10.3,10.4c1,0,2,0,3,0c11,0.3,9.6-2.2,9.8,10.3c0.1,3.5-1.5,4.8-4.8,4.8c-4.8-0.1-9.7,0.1-14.5-0.1
		c-2.7-0.1-3.8,0.7-3.8,3.6c0.1,13.5,0,27,0.1,40.5c0.1,8,8.9,12.4,16.9,8.3c2.6-1.3,6.4-2.3,7.1-0.4c1.3,3.3,4.7,7.1,2.5,10.6
		c-1.7,2.8-5.8,3.9-9.4,4.3c-2.6,0.3-5.1,0.9-7.6,1.4c-9.6,2-23.9-2-25.6-16.1c-2-16-1.2-31.9-1.4-47.8c0-3.2-0.3-4.4-3.9-4.4
		c-7.8,0.1-11.5-6-8.4-13.1c0.8-1.7,2.2-1.8,3.7-1.8C737.2,546.5,740,546.5,743.2,546.5z"/>
	<path class="st0" d="M389.5,590c0-8-0.2-16,0.1-24c0.1-3.6-1.3-4.9-4.6-4.5c-0.2,0-0.3,0-0.5,0c-8.1-0.1-11.5-5.4-8.5-13
		c1-2.6,3.1-2,5-2.1c8.5-0.2,8.5-0.1,8.5-8.6c0-7.2,1.4-8.7,8.6-9.4c0.8-0.1,1.7,0,2.4-0.3c4.3-2.2,4.9,0.4,4.9,3.8
		c0,3.7,0.2,7.3-0.1,11c-0.2,2.8,0.7,3.8,3.6,3.7c5.2-0.2,10.3,0,15.5-0.1c3-0.1,4,1.1,4.1,4.1c0.4,11,0.5,11-10.7,11
		c-12.4,0-12.4,0-12.4,12.3c0,9.3,0.1,18.7,0,28c0,3.2,0.5,6.1,1.9,9.1c1.2,2.5,2.8,4,5.6,3.8c3.7-0.2,7.4,0.7,11.1-1.6
		c1.9-1.2,5.2-1.9,6.5,1.9c3.1,9,3,9.3-1.7,11.1c-6.4,2.5-13.1,4.1-19.9,3.8c-7.5-0.3-14.2-2.8-18-10.4c-1-1.9-1.3-3.7-1.3-5.7
		C389.5,606,389.5,598,389.5,590C389.5,590,389.5,590,389.5,590z"/>
	<path class="st0" d="M460.5,555.4c3.4-4.1,7.1-8.2,12.5-9.9c5-1.7,10.1-1.5,15-0.1c3.6,1,3.5,4,3.5,7.1c0,3.2-1.9,5.6-2.5,8.5
		c-0.5,2.4-3.5,1.8-5.1,0.7c-7.8-5.4-22.1,3.3-21.7,13.4c0.6,15.5,0.2,31,0.1,46.5c0,6.7-0.1,6.8-6.7,6.8c-10.5,0-10.5,0-10.5-10.4
		c0-21.3,0-42.7,0-64c0-3.2-1.4-7.4,4.4-7.5c7.1-0.2,8.9,0.9,9.8,7.1C459.6,554.1,459.3,554.9,460.5,555.4z"/>
	<path class="st1" d="M523.4,587.3c0,11.8-0.1,23.6,0.1,35.4c0.1,4-1.4,5.6-5.5,5.7c-12.2,0.3-12.2,0.4-12.2-12
		c0-21.3,0.1-42.6-0.1-63.8c0-4.5,1.2-6.3,5.9-6.1c14.2,0.4,11.6-1.4,11.8,11.5C523.5,567.7,523.4,577.5,523.4,587.3z"/>
	<path class="st0" d="M221.4,445c0-1-0.1-2,0.8-2.8c3.2-3.1,6.2-6.5,9.6-9.3c4.3-3.5,7.3-3.1,11.6,1.1c7.3,7.2,14.7,14.5,21.9,21.8
		c3.5,3.5,3.3,8.9-0.4,12.7c-2,2.1-4.5,4-6.2,6.3c-3.1,4.3-5.8,3.8-9.2,0.4c-8.8-9-17.7-17.9-26.7-26.8
		C221.5,447.3,221.5,446.2,221.4,445z"/>
	<path class="st1" d="M116.6,589.3c-1.7,0.1-3,0.3-4.3,0.4c-3.2,0.3-4.5-0.8-3.8-4.3c1.3-6.2,1.3-12.6,3-18.8
		c0.4-1.4-0.1-3.2,1.6-3.9c1.4-0.6,2.3,0.6,3.4,1.3c7.1,5.1,12.2,12.3,19.1,17.6c2.2,1.6,0.8,5.7-1.8,5.5
		C127.7,586.6,122.3,590.8,116.6,589.3z"/>
	<path class="st2" d="M514.7,519.4c6.7,0,11.2,4.2,11.5,9.9c0.3,4.8-6.4,10.9-12.1,10.3c-5.8-0.7-10.6-4.7-10.6-10.4
		C503.5,523.1,507.8,519.3,514.7,519.4z"/>
</g>
</svg>
